<?xml version="1.0" encoding="UTF-8"?>
<svg id="Layer_2" data-name="Layer 2" xmlns="http://www.w3.org/2000/svg" viewBox="0 0 251.1 311.96">
  <defs>
    <style>
      .cls-1 {
        fill: #fff;
      }

      .cls-2 {
        fill: #bcbcbc;
      }

      .cls-3 {
        fill: #b2b2b2;
      }
    </style>
  </defs>
  <g id="intro_top">
    <g>
      <g>
        <rect class="cls-1" width="145.15" height="227.37"/>
        <polygon class="cls-3" points="226.86 264.3 145.15 227.37 145.15 0 226.86 36.92 226.86 264.3"/>
      </g>
      <g>
        <circle cx="70.74" cy="104.11" r="17.86"/>
        <path d="m99.37,109.82l-28.88,24.87c-2.47,2.15-2.49,6.2-.05,9.01l36.63,37.05c2.44,2.81,6.46,3.34,8.93,1.2l27.43-6.37c2.47-2.15,2.49-6.2.05-9.01l-35.18-55.55c-2.44-2.81-6.46-3.34-8.93-1.2Z"/>
        <rect x="96.31" y="111.95" width="46.58" height="16.41" rx="8.21" ry="8.21" transform="translate(27.76 -22.35) rotate(12.07)"/>
        <rect x="43.81" y="137.24" width="47.57" height="16.71" rx="8.36" ry="8.36" transform="translate(-63.74 53.31) rotate(-30)"/>
        <rect x="79.4" y="178.81" width="46.63" height="21.1" rx="10.55" ry="10.55" transform="translate(-110.81 160.84) rotate(-53.92)"/>
        <rect x="112.9" y="179.26" width="47.92" height="21.1" rx="10.55" ry="10.55" transform="translate(311.46 34) rotate(84.05)"/>
        <rect x="68.28" y="208.83" width="49.52" height="19.35" rx="9.68" ry="9.68" transform="translate(-125.47 311.54) rotate(-90)"/>
        <rect x="127.6" y="204.26" width="48.68" height="18.16" rx="9.08" ry="9.08" transform="translate(203.82 470.07) rotate(-155.97)"/>
        <rect x="123.22" y="128.67" width="44.15" height="14.67" rx="7.33" ry="7.33" transform="translate(168.64 -61.64) rotate(53.63)"/>
        <rect x="33.75" y="118.39" width="14.51" height="47.26" rx="7.25" ry="7.25" transform="translate(-88.42 70.59) rotate(-45)"/>
      </g>
      <g>
        <g>
          <ellipse class="cls-2" cx="225.4" cy="303.3" rx="7.39" ry="21.31" transform="translate(-120.86 454.63) rotate(-76.99)"/>
          <path class="cls-2" d="m235.65,293.58l-41.65-2.77c-3.58-.25-7.74-1.9-9.23-3.68l-17.28-24.64c-1.5-1.78.21-3.04,3.8-2.79l21.93-4.45c3.58.25,7.74,1.9,9.23,3.68l37,31.87c1.5,1.78-.21,3.04-3.8,2.79Z"/>
          <path class="cls-2" d="m250.7,281.89l-10.13,10.19c-1.52,1.52-6.88,1.49-11.92-.08h0c-5.04-1.57-7.92-4.1-6.41-5.62l10.13-10.19c1.52-1.52,6.88-1.49,11.92.08h0c5.04,1.57,7.92,4.1,6.41,5.62Z"/>
          <path class="cls-2" d="m201.68,290.85l-30.79.55c-4.59.08-10.61-1.67-13.38-3.9h0c-2.78-2.23-1.3-4.11,3.29-4.2l30.79-.55c4.59-.08,10.61,1.67,13.38,3.9h0c2.78,2.23,1.3,4.11-3.29,4.2Z"/>
          <path class="cls-2" d="m172.58,267.12l-29.54-4.6c-6.71-1.04-12.9-4.04-13.76-6.65h0c-.86-2.61,3.93-3.89,10.65-2.85l29.54,4.6c6.71,1.04,12.9,4.04,13.76,6.65h0c.86,2.61-3.93,3.89-10.65,2.85Z"/>
          <path class="cls-2" d="m165.79,242.25c2.33.05,4.55.52,6.25,1.32l24.32,11.47c5.56,2.52,6.95,5.6,3.09,6.84h0c-3.86,1.24-11.56.19-17.12-2.34l-22.95-10.76c-3.35-1.52-.96-3.28,1.47-4.45,1.73-.83,1.31-2.17,3.7-2.11l1.24.03Z"/>
          <path class="cls-2" d="m136.06,261.31l-40.93-16.44c-2.66-1.07-2.8-2.88-.31-4.02l1.82-.83c2.49-1.14,6.7-1.2,9.36-.13l40.93,16.44c2.66,1.07,2.8,2.88.31,4.02l-1.82.83c-2.49,1.14-6.7,1.2-9.36.13Z"/>
          <path class="cls-2" d="m235.25,264.15l14.43,14.25c1.97,1.95.1,3.43-4.17,3.28h0c-4.27-.15-9.38-1.86-11.35-3.81l-14.43-14.25c-1.97-1.95-.1-3.43,4.17-3.28h0c4.27.15,9.38,1.86,11.35,3.81Z"/>
          <path class="cls-2" d="m162.26,284.24h0c-4.47-.43-5.35-.72-6.14,1.08l-1.19,17.12s0,.03,0,.05c.01,2.23,3.62,4.04,8.1,4.12h1.82c2.63-.14,4.99-.97,5.89-2.2.05-.07.31-.98.47-1.51.08-.27.13-.53.17-.89l1.37-13.65c-1.31-1.8-6.02-3.69-10.49-4.12Z"/>
        </g>
        <path class="cls-2" d="m179.05,242.97l-9.49,5.6c-2.45,1.45-6.84,1.63-9.76.41h0c-2.91-1.22-3.29-3.4-.83-4.85l9.49-5.6c2.45-1.45,6.84-1.63,9.76-.41h0c2.91,1.22,3.29,3.4.83,4.85Z"/>
      </g>
    </g>
  </g>
</svg>